<svg width="61" height="60" viewBox="0 0 61 60" fill="none" xmlns="http://www.w3.org/2000/svg">
<rect x="0.5" width="60" height="60" rx="30" fill="#EAE3F1"/>
<path d="M30 20C24.48 20 20 24.48 20 30C20 35.52 24.48 40 30 40C35.52 40 40 35.52 40 30C40 24.48 35.52 20 30 20ZM33.61 26.34C34.68 26.34 35.54 27.2 35.54 28.27C35.54 29.34 34.68 30.2 33.61 30.2C32.54 30.2 31.68 29.34 31.68 28.27C31.67 27.2 32.54 26.34 33.61 26.34ZM27.61 24.76C28.91 24.76 29.97 25.82 29.97 27.12C29.97 28.42 28.91 29.48 27.61 29.48C26.31 29.48 25.25 28.42 25.25 27.12C25.25 25.81 26.3 24.76 27.61 24.76ZM27.61 33.89V37.64C25.21 36.89 23.31 35.04 22.47 32.68C23.52 31.56 26.14 30.99 27.61 30.99C28.14 30.99 28.81 31.07 29.51 31.21C27.87 32.08 27.61 33.23 27.61 33.89ZM30 38C29.73 38 29.47 37.99 29.21 37.96V33.89C29.21 32.47 32.15 31.76 33.61 31.76C34.68 31.76 36.53 32.15 37.45 32.91C36.28 35.88 33.39 38 30 38Z" fill="#7D287D"/>
</svg>
